<?xml version="1.0" encoding="UTF-8" standalone="no"?>
<svg
   xmlns:osb="http://www.openswatchbook.org/uri/2009/osb"
   xmlns:dc="http://purl.org/dc/elements/1.1/"
   xmlns:cc="http://creativecommons.org/ns#"
   xmlns:rdf="http://www.w3.org/1999/02/22-rdf-syntax-ns#"
   xmlns:svg="http://www.w3.org/2000/svg"
   xmlns="http://www.w3.org/2000/svg"
   xmlns:sodipodi="http://sodipodi.sourceforge.net/DTD/sodipodi-0.dtd"
   xmlns:inkscape="http://www.inkscape.org/namespaces/inkscape"
   version="1.2"
   viewBox="0 0 4537 410"
   width="4537"
   height="410"
   id="svg3862"
   sodipodi:docname="stock_placeholder_black.svg"
   inkscape:version="0.92.3 (2405546, 2018-03-11)">
  <metadata
     id="metadata3868">
    <rdf:RDF>
      <cc:Work
         rdf:about="">
        <dc:format>image/svg+xml</dc:format>
        <dc:type
           rdf:resource="http://purl.org/dc/dcmitype/StillImage" />
        <dc:title>20230126 - DSM-Firmenich_Logo_Primary_Digital_RGB_Negative-svg</dc:title>
      </cc:Work>
    </rdf:RDF>
  </metadata>
  <defs
     id="defs3866">
    <linearGradient
       id="linearGradient4730"
       osb:paint="solid">
      <stop
         style="stop-color:#000000;stop-opacity:1;"
         offset="0"
         id="stop4728" />
    </linearGradient>
    <inkscape:perspective
       sodipodi:type="inkscape:persp3d"
       inkscape:vp_x="373.12725 : -73.657234 : 1"
       inkscape:vp_y="0 : 781.13429 : 0"
       inkscape:vp_z="3527.8581 : -73.657234 : 1"
       inkscape:persp3d-origin="1950.4927 : -127.03474 : 1"
       id="perspective3886" />
  </defs>
  <sodipodi:namedview
     pagecolor="#ffffff"
     bordercolor="#666666"
     borderopacity="1"
     objecttolerance="10"
     gridtolerance="10"
     guidetolerance="10"
     inkscape:pageopacity="0"
     inkscape:pageshadow="2"
     inkscape:window-width="1640"
     inkscape:window-height="852"
     id="namedview3864"
     showgrid="false"
     inkscape:zoom="0.15428697"
     inkscape:cx="1976.3369"
     inkscape:cy="-182.88769"
     inkscape:window-x="0"
     inkscape:window-y="0"
     inkscape:window-maximized="0"
     inkscape:current-layer="svg3862" />
  <title
     id="title3824">20230126 - DSM-Firmenich_Logo_Primary_Digital_RGB_Negative-svg</title>
  <style
     id="style3826">
		.s0 { fill: #000} 
	</style>
  <g
     id="DESIGN"
     transform="matrix(1.7584852,0,0,1.245887,-329.06263,-36.302677)">
    <flowRoot
       xml:space="preserve"
       id="flowRoot3870"
       style="font-style:normal;font-variant:normal;font-weight:bold;font-stretch:normal;font-size:40px;line-height:1.25;font-family:'Goudy Stout';-inkscape-font-specification:'Goudy Stout Bold';letter-spacing:0px;word-spacing:0px;fill:#000000;fill-opacity:1;stroke:none"><flowRegion
         id="flowRegion3872"
         style="font-style:normal;font-variant:normal;font-weight:bold;font-stretch:normal;font-family:'Goudy Stout';-inkscape-font-specification:'Goudy Stout Bold'"><rect
           id="rect3874"
           width="3448.1201"
           height="155.55429"
           x="699.99426"
           y="137.78"
           style="font-style:normal;font-variant:normal;font-weight:bold;font-stretch:normal;font-family:'Goudy Stout';-inkscape-font-specification:'Goudy Stout Bold'" /></flowRegion><flowPara
         id="flowPara3876"
         style="font-style:normal;font-variant:normal;font-weight:bold;font-stretch:normal;font-size:192px;font-family:'Goudy Stout';-inkscape-font-specification:'Goudy Stout Bold'">Stock Tools</flowPara></flowRoot>    <text
       xml:space="preserve"
       style="font-style:normal;font-weight:normal;font-size:38.38241196px;line-height:1.25;font-family:sans-serif;letter-spacing:0px;word-spacing:0px;fill:#000000;fill-opacity:1;stroke:none;stroke-width:0.95956033"
       x="287.42123"
       y="265.07761"
       id="text3880"
       transform="scale(0.95956031,1.042144)"><tspan
         sodipodi:role="line"
         id="tspan3878"
         x="287.42123"
         y="265.07761"
         style="font-style:normal;font-variant:normal;font-weight:bold;font-stretch:normal;font-size:184.23558044px;font-family:Impact;-inkscape-font-specification:'Impact Bold';stroke-width:0.95956033">S t o c k     T o o l k i t </tspan></text>
  </g>
  <rect
     id="rect3921"
     width="4446.2598"
     height="259.25714"
     x="38.888573"
     y="85.928574"
     style="fill-opacity:1;fill:none;stroke:#000000;stroke-opacity:1;stroke-width:15;stroke-miterlimit:4;stroke-dasharray:none" />
  <path
     sodipodi:type="spiral"
     style="fill:none;fill-rule:evenodd;stroke:#000000;stroke-width:12.85130215;stroke-miterlimit:4;stroke-dasharray:none"
     id="path4738"
     sodipodi:cx="3402.75"
     sodipodi:cy="228.52"
     sodipodi:expansion="1"
     sodipodi:revolution="3"
     sodipodi:radius="238.31923"
     sodipodi:argument="-18.064157"
     sodipodi:t0="0"
     d="m 3402.75,228.52 c 8.4492,8.44919 -7.2208,15.55786 -14.0431,14.0431 -18.488,-4.10492 -21.4601,-27.78574 -14.0431,-42.12929 13.2672,-25.65726 47.7193,-28.66299 70.2155,-14.04308 33.014,21.45531 36.0794,67.92329 14.0431,98.30167 -29.371,40.48961 -88.2233,43.58679 -126.3879,14.04306 -48.0262,-37.17776 -51.1412,-108.56899 -14.043,-154.47405 44.9308,-55.597182 128.9404,-58.722904 182.5602,-14.04305 63.189,52.65367 66.3217,149.32805 14.043,210.64644 -60.3577,70.7945 -169.7263,73.93189 -238.7326,14.04303 -78.4093,-68.04953 -81.5501,-190.13215 -14.043,-266.818816 75.7327,-86.0308501 210.5434,-89.1740474 294.905,-14.043015 93.6573,83.409681 96.8024,230.958901 14.043,322.991191"
     transform="matrix(1,0,0,0.60548823,836.10429,78.97128)" />
  <path
     sodipodi:type="spiral"
     style="fill:none;fill-rule:evenodd;stroke:#000000;stroke-width:12.85130215;stroke-miterlimit:4;stroke-dasharray:none"
     id="path4738-0"
     sodipodi:cx="3402.75"
     sodipodi:cy="228.52"
     sodipodi:expansion="1"
     sodipodi:revolution="3"
     sodipodi:radius="238.31923"
     sodipodi:argument="-18.064157"
     sodipodi:t0="0"
     d="m 3402.75,228.52 c 8.4492,8.44919 -7.2208,15.55786 -14.0431,14.0431 -18.488,-4.10492 -21.4601,-27.78574 -14.0431,-42.12929 13.2672,-25.65726 47.7193,-28.66299 70.2155,-14.04308 33.014,21.45531 36.0794,67.92329 14.0431,98.30167 -29.371,40.48961 -88.2233,43.58679 -126.3879,14.04306 -48.0262,-37.17776 -51.1412,-108.56899 -14.043,-154.47405 44.9308,-55.597182 128.9404,-58.722904 182.5602,-14.04305 63.189,52.65367 66.3217,149.32805 14.043,210.64644 -60.3577,70.7945 -169.7263,73.93189 -238.7326,14.04303 -78.4093,-68.04953 -81.5501,-190.13215 -14.043,-266.818816 75.7327,-86.0308501 210.5434,-89.1740474 294.905,-14.043015 93.6573,83.409681 96.8024,230.958901 14.043,322.991191"
     transform="matrix(1,0,0,0.60548823,479.32457,76.179097)" />
</svg>
